<?xml version="1.0" encoding="UTF-8"?><svg id="Layer_1" xmlns="http://www.w3.org/2000/svg" viewBox="0 0 740.27 195.39"><defs><style>.cls-1{fill:#ff9100;}.cls-2{fill:#5e5e5e;}.cls-3{fill:#ffc400;}.cls-4{fill:#dd2c00;}</style></defs><path class="cls-2" d="M704.89,160.1c-7.23,0-13.78-1.69-19.62-5.06-5.75-3.37-10.26-8.03-13.53-13.97-3.27-6.05-4.91-12.78-4.91-20.22s1.54-13.68,4.61-19.62c3.17-6.04,7.58-10.8,13.23-14.27,5.65-3.57,12.09-5.35,19.32-5.35s13.87,1.64,19.33,4.91c5.55,3.27,9.76,7.83,12.64,13.68,2.87,5.75,4.31,12.39,4.31,19.92,0,.89-.05,1.78-.15,2.68-.1.89-.15,1.39-.15,1.49h-56.78c.5,6.74,2.92,11.94,7.28,15.61,4.36,3.67,9.32,5.5,14.86,5.5,8.52,0,15.06-3.96,19.62-11.89l13.97,6.69c-3.27,6.04-7.83,10.9-13.68,14.57-5.75,3.57-12.54,5.35-20.36,5.35ZM723.62,111.79c-.2-2.38-.99-4.81-2.38-7.28-1.39-2.48-3.57-4.56-6.54-6.24-2.87-1.78-6.49-2.68-10.85-2.68-4.86,0-9.07,1.49-12.64,4.46-3.47,2.97-5.85,6.89-7.14,11.74h39.54Z"/><path class="cls-2" d="M630.95,160.1c-8.42,0-15.41-1.93-20.96-5.8-5.45-3.96-9.32-8.92-11.59-14.87l14.57-6.24c1.68,4.06,4.11,7.13,7.28,9.22,3.27,2.08,6.84,3.12,10.7,3.12,4.06,0,7.38-.74,9.96-2.23,2.58-1.59,3.86-3.62,3.86-6.09s-1.04-4.31-3.12-5.8c-2.08-1.59-5.5-2.97-10.26-4.16l-10.11-2.38c-5.55-1.29-10.35-3.67-14.42-7.14-3.96-3.57-5.95-8.18-5.95-13.82,0-6.84,2.82-12.24,8.47-16.2,5.65-4.06,12.58-6.09,20.81-6.09,6.84,0,12.88,1.44,18.14,4.31,5.35,2.87,9.22,7.04,11.59,12.49l-14.42,6.09c-1.39-3.07-3.52-5.35-6.39-6.84-2.87-1.49-5.99-2.23-9.36-2.23s-6.15.74-8.62,2.23c-2.48,1.39-3.72,3.27-3.72,5.65,0,2.08.84,3.76,2.53,5.05,1.78,1.29,4.56,2.38,8.32,3.27l11,2.68c7.43,1.88,12.98,4.76,16.65,8.62,3.67,3.77,5.5,8.32,5.5,13.68,0,4.36-1.34,8.32-4.01,11.89-2.58,3.57-6.19,6.39-10.85,8.47-4.56,2.08-9.76,3.12-15.61,3.12Z"/><path class="cls-2" d="M552.72,160.1c-5.25,0-10.01-1.04-14.27-3.12-4.16-2.18-7.48-5.15-9.96-8.92-2.38-3.87-3.57-8.23-3.57-13.08,0-7.73,2.87-13.82,8.62-18.28,5.85-4.46,13.23-6.69,22.15-6.69,7.83,0,14.52,1.34,20.07,4.01v-3.12c0-4.46-1.78-8.13-5.35-11-3.47-2.97-7.68-4.46-12.64-4.46-7.53,0-13.58,3.07-18.13,9.22l-12.49-8.62c3.47-4.66,7.78-8.23,12.93-10.7,5.25-2.48,11.15-3.72,17.69-3.72,10.8,0,19.13,2.73,24.97,8.18,5.95,5.35,8.92,12.93,8.92,22.74v45.19h-15.91v-9.07h-.89c-2.38,3.37-5.4,6.14-9.07,8.32-3.67,2.08-8.03,3.12-13.08,3.12ZM555.4,146.57c3.67,0,7.04-.89,10.11-2.68,3.17-1.88,5.65-4.31,7.43-7.28,1.88-3.07,2.82-6.34,2.82-9.81-5.25-2.87-10.85-4.31-16.8-4.31-5.45,0-9.71,1.19-12.78,3.57-3.07,2.38-4.61,5.4-4.61,9.07,0,3.37,1.34,6.14,4.01,8.32,2.77,2.08,6.04,3.12,9.81,3.12Z"/><path class="cls-2" d="M484.11,160.1c-5.35,0-10.16-1.14-14.42-3.42-4.16-2.28-7.28-5.15-9.36-8.62h-.89v9.66h-15.46V51.29h16.35v31.96l-.89,10.26h.89c2.08-3.37,5.2-6.19,9.36-8.47,4.26-2.28,9.07-3.42,14.42-3.42,6.34,0,12.19,1.68,17.54,5.05,5.45,3.37,9.76,8.08,12.93,14.12,3.27,5.95,4.9,12.64,4.9,20.07s-1.63,14.12-4.9,20.07c-3.17,5.95-7.48,10.65-12.93,14.12-5.35,3.37-11.2,5.05-17.54,5.05ZM481.29,145.08c3.86,0,7.43-.99,10.7-2.97,3.37-1.98,6.04-4.81,8.03-8.47,2.08-3.77,3.12-8.03,3.12-12.78s-1.04-8.97-3.12-12.64c-1.98-3.77-4.66-6.64-8.03-8.62-3.27-1.98-6.84-2.97-10.7-2.97s-7.48.99-10.85,2.97c-3.27,1.98-5.95,4.81-8.03,8.47-1.98,3.67-2.97,7.93-2.97,12.78s.99,9.12,2.97,12.78c2.08,3.67,4.76,6.49,8.03,8.47,3.37,1.98,6.99,2.97,10.85,2.97Z"/><path class="cls-2" d="M398.86,160.1c-7.23,0-13.77-1.69-19.62-5.06-5.75-3.37-10.26-8.03-13.53-13.97-3.27-6.05-4.9-12.78-4.9-20.22s1.54-13.68,4.61-19.62c3.17-6.04,7.58-10.8,13.23-14.27,5.65-3.57,12.09-5.35,19.32-5.35s13.87,1.64,19.32,4.91c5.55,3.27,9.76,7.83,12.64,13.68,2.87,5.75,4.31,12.39,4.31,19.92,0,.89-.05,1.78-.15,2.68-.1.89-.15,1.39-.15,1.49h-56.78c.5,6.74,2.92,11.94,7.28,15.61,4.36,3.67,9.31,5.5,14.86,5.5,8.52,0,15.06-3.96,19.62-11.89l13.97,6.69c-3.27,6.04-7.83,10.9-13.67,14.57-5.75,3.57-12.54,5.35-20.37,5.35ZM417.59,111.79c-.2-2.38-.99-4.81-2.38-7.28-1.39-2.48-3.57-4.56-6.54-6.24-2.87-1.78-6.49-2.68-10.85-2.68-4.86,0-9.07,1.49-12.64,4.46-3.47,2.97-5.85,6.89-7.14,11.74h39.54Z"/><path class="cls-2" d="M315.43,83.99h15.46v11h.89c1.59-3.77,4.46-6.89,8.62-9.36,4.16-2.58,8.42-3.86,12.78-3.86,3.57,0,6.49.5,8.77,1.49v17.1c-3.37-1.69-7.14-2.53-11.3-2.53-5.35,0-9.86,2.08-13.53,6.24-3.57,4.06-5.35,9.07-5.35,15.01v38.65h-16.35v-73.73Z"/><path class="cls-2" d="M292.09,71.5c-3.07,0-5.7-1.04-7.88-3.12-2.08-2.18-3.12-4.81-3.12-7.88s1.04-5.65,3.12-7.73c2.18-2.18,4.81-3.27,7.88-3.27s5.65,1.09,7.73,3.27c2.18,2.08,3.27,4.66,3.27,7.73s-1.09,5.7-3.27,7.88c-2.08,2.08-4.66,3.12-7.73,3.12ZM283.91,83.99h16.35v73.73h-16.35v-73.73Z"/><path class="cls-2" d="M209.43,51.29h64.66v15.91h-48.01v30.62h43.26v15.76h-43.26v44.15h-16.65V51.29Z"/><path class="cls-1" d="M48.72,189.77c8.18,3.29,17.05,5.24,26.36,5.57,12.6.44,24.59-2.17,35.3-7.12-12.85-5.05-24.49-12.43-34.42-21.61-6.44,10.31-15.96,18.45-27.25,23.16Z"/><path class="cls-3" d="M75.97,166.62c-22.67-20.97-36.42-51.31-35.26-84.6.04-1.08.09-2.16.16-3.24-4.06-1.05-8.3-1.69-12.66-1.84-6.24-.22-12.29.56-18,2.16C4.16,89.7.5,101.86.05,114.89c-1.17,33.62,19.17,63,48.67,74.88,11.29-4.71,20.81-12.84,27.25-23.16Z"/><path class="cls-1" d="M75.97,166.62c5.27-8.43,8.47-18.32,8.84-28.98.98-28.03-17.86-52.13-43.94-58.86-.07,1.08-.12,2.16-.16,3.24-1.16,33.29,12.59,63.63,35.26,84.6Z"/><path class="cls-4" d="M81.89,0c-14.85,11.9-26.58,27.59-33.67,45.66-4.06,10.35-6.61,21.47-7.36,33.13,26.08,6.73,44.92,30.84,43.94,58.86-.37,10.65-3.58,20.53-8.84,28.98,9.93,9.19,21.57,16.56,34.42,21.61,25.79-11.92,44.09-37.57,45.15-67.92.69-19.66-6.87-37.18-17.54-51.97C126.71,52.71,81.89,0,81.89,0Z"/></svg>